# xmcd CD database file
#
# Track frame offsets:
#	150
#	15975
#	39991
#	51514
#	71390
#	90430
#	108615
#	120100
#	134721
#	152777
#	168010
#	182861
#
# Disc length: 2643 seconds
#
# Revision: 0
# Processed by: cddbd v1.5.2PL0 Copyright (c) Steve Scherf et al.
# Submitted via: CDex 1.51
#
DISCID=930a510c
DTITLE=Chuck Mead - Free State Serenade
DYEAR=2014
DGENRE=Country
TTITLE0=Knee Deep In The Wakarusa River
TTITLE1=The Devil By Their Side
TTITLE2=Neosho Valley Sue
TTITLE3=On A Slow Train Through Arkansas
TTITLE4=Little Ivy
TTITLE5=Evil Wind
TTITLE6=Ten Light Years Away
TTITLE7=Reno County Girl
TTITLE8=A Short Goodbye
TTITLE9=The Light Of Day
TTITLE10=Ain't Nothing Like The Love Of A Woman
TTITLE11=Sittin' On Top Of The Bottom
EXTD=YEAR: 2014
EXTT0=
EXTT1=
EXTT2=
EXTT3=
EXTT4=
EXTT5=
EXTT6=
EXTT7=
EXTT8=
EXTT9=
EXTT10=
EXTT11=
PLAYORDER=
